<svg width="206" height="37" viewBox="0 0 206 37" fill="none" xmlns="http://www.w3.org/2000/svg"><path d="M47.035.583c.993.187 1.721.608 2.187 1.262.465.654.728 1.433.79 2.336.094.872 0 1.854-.279 2.944a17.377 17.377 0 0 1-1.163 3.13l-9.956 24.58c-.155.343-.387.56-.697.654l-.233.093-2.698.841c-.435.187-.76.032-.977-.467L26.61 17.218l-7.118 17.523c-.124.312-.372.53-.744.654l-.186.047v.047l-2.559.841a.792.792 0 0 1-.651 0 .857.857 0 0 1-.466-.467L3.117 6.097c-.403-1.028-.775-1.729-1.116-2.103-.342-.405-.73-.685-1.164-.84a3.76 3.76 0 0 1-.604-.281A.576.576 0 0 1 0 2.405c0-.373.295-.545.884-.514.434.032 1.054.063 1.86.094.807.031 1.769.047 2.885.047 1.148 0 2.11-.016 2.885-.047a61.47 61.47 0 0 0 1.814-.094c.59-.03.884.14.884.514 0 .219-.077.374-.232.468-.125.062-.31.171-.559.327-.31.218-.434.53-.372.934.093.405.295 1.06.605 1.963l8.607 23.551 6.048-15.607-3.07-7.804c-.404-1.028-.792-1.744-1.164-2.15-.341-.404-.729-.67-1.163-.794a3.751 3.751 0 0 1-.605-.28.576.576 0 0 1-.232-.467c0-.374.294-.546.884-.514a64.3 64.3 0 0 0 1.86.093c.838.031 1.815.047 2.931.047 1.148 0 2.125-.016 2.931-.047a60.568 60.568 0 0 0 1.861-.093c.559-.032.838.14.838.514 0 .218-.062.373-.186.467a7.51 7.51 0 0 0-.559.327c-.34.218-.48.53-.418.935s.263 1.059.604 1.962l8.607 23.411 6.793-17.523c.372-.997.48-1.822.325-2.477a4.513 4.513 0 0 0-.744-1.775 38.744 38.744 0 0 0-1.117-1.636c-.403-.56-.651-1.246-.744-2.056a3.981 3.981 0 0 1 .093-1.495c.155-.499.403-.92.744-1.262A2.793 2.793 0 0 1 45.081.63c.558-.156 1.21-.172 1.954-.047Zm15.798 7.944c1.644-.031 3.086.156 4.327.56 1.24.406 2.295.935 3.163 1.59.9.654 1.629 1.401 2.187 2.242.59.81 1.039 1.636 1.349 2.477.31.841.512 1.666.605 2.476.093.78.093 1.449 0 2.01-.093.56-.403.84-.93.84H56.83c.031.344.063.67.093.982.032.312.078.639.14.982.248 1.557.682 2.928 1.303 4.111.62 1.184 1.364 2.181 2.233 2.991a9.7 9.7 0 0 0 2.977 1.776c1.117.405 2.28.607 3.49.607 1.923 0 3.815-.514 5.675-1.542.466-.249.822-.28 1.07-.093.249.249.218.607-.093 1.074-.31.374-.744.842-1.302 1.402-.528.53-1.21 1.044-2.047 1.542-.807.499-1.768.92-2.885 1.262-1.116.374-2.403.56-3.861.56-1.892 0-3.645-.31-5.257-.934-1.613-.623-3.024-1.495-4.234-2.617a12.927 12.927 0 0 1-2.884-4.112c-.714-1.588-1.148-3.333-1.303-5.233-.155-2.025.047-3.925.605-5.701.558-1.807 1.395-3.38 2.512-4.72a12.73 12.73 0 0 1 4.187-3.27c1.675-.81 3.536-1.231 5.583-1.262Zm2.512 10.28c.62 0 1.117-.031 1.489-.093.372-.063.651-.187.837-.374.217-.187.357-.452.42-.795.061-.342.077-.778.046-1.308a8.067 8.067 0 0 0-.42-2.196 6.874 6.874 0 0 0-.976-2.103 5.508 5.508 0 0 0-1.628-1.542c-.652-.436-1.412-.654-2.28-.654a4.27 4.27 0 0 0-2.42.747c-.713.499-1.333 1.169-1.86 2.01-.496.81-.9 1.76-1.21 2.85a17.521 17.521 0 0 0-.512 3.458h8.514Zm25.429-10.28c1.644-.031 3.086.156 4.327.56 1.24.406 2.295.935 3.163 1.59.9.654 1.629 1.401 2.187 2.242a10.24 10.24 0 0 1 1.349 2.477c.31.841.512 1.666.605 2.476.093.78.093 1.449 0 2.01-.093.56-.403.84-.93.84H84.773c.03.344.062.67.093.982.03.312.077.639.14.982.247 1.557.682 2.928 1.302 4.111.62 1.184 1.365 2.181 2.233 2.991a9.72 9.72 0 0 0 2.978 1.776c1.116.405 2.28.607 3.489.607 1.923 0 3.815-.514 5.676-1.542.465-.249.822-.28 1.07-.093.248.249.217.607-.093 1.074-.311.374-.745.842-1.303 1.402-.527.53-1.21 1.044-2.047 1.542-.806.499-1.768.92-2.885 1.262-1.116.374-2.403.56-3.86.56-1.893 0-3.645-.31-5.258-.934-1.613-.623-3.024-1.495-4.234-2.617a12.928 12.928 0 0 1-2.884-4.112c-.713-1.588-1.148-3.333-1.303-5.233-.155-2.025.047-3.925.605-5.701.558-1.807 1.396-3.38 2.512-4.72a12.732 12.732 0 0 1 4.187-3.27c1.675-.81 3.536-1.231 5.583-1.262Zm2.513 10.28c.62 0 1.116-.031 1.488-.093.372-.063.651-.187.838-.374.217-.187.356-.452.418-.795.062-.342.078-.778.047-1.308a8.067 8.067 0 0 0-.419-2.196 6.871 6.871 0 0 0-.977-2.103 5.507 5.507 0 0 0-1.628-1.542c-.651-.436-1.411-.654-2.28-.654-.868 0-1.675.249-2.419.747-.713.499-1.334 1.169-1.861 2.01-.496.81-.9 1.76-1.21 2.85a17.448 17.448 0 0 0-.511 3.458h8.514Zm40.362 15.327c.249.124.45.233.605.327a.46.46 0 0 1 .233.42c0 .343-.295.514-.884.514-.434 0-.977.016-1.628.047-.652.031-1.334.078-2.047.14a895.4 895.4 0 0 0-2.001.094 13.59 13.59 0 0 0-1.489.14c-.558.093-.837-.171-.837-.794V31.47a9.557 9.557 0 0 1-3.21 3.552c-1.334.903-3.04 1.355-5.118 1.355-1.799 0-3.427-.343-4.885-1.028a10.338 10.338 0 0 1-3.629-3.037c-.992-1.309-1.752-2.882-2.279-4.72-.527-1.87-.76-3.972-.698-6.308.062-2.15.45-4.05 1.163-5.701.713-1.682 1.659-3.069 2.838-4.159a10.701 10.701 0 0 1 4.187-2.336c1.613-.499 3.35-.639 5.211-.421 1.612.187 2.931.67 3.954 1.449a9.038 9.038 0 0 1 2.466 2.85V8.34c0-.81-.062-1.449-.186-1.916-.093-.498-.357-.841-.791-1.028a3.764 3.764 0 0 1-.605-.28.624.624 0 0 1-.233-.514c0-.343.264-.608.791-.795a26.6 26.6 0 0 0 1.303-.28c.527-.125 1.117-.28 1.768-.467s1.334-.42 2.047-.701c.713-.28 1.411-.592 2.093-.935.249-.124.45-.14.605-.047.155.094.233.265.233.514v29.346c0 .84.062 1.495.186 1.962.124.468.403.78.837.935Zm-13.864-.748c1.768-.062 3.164-.95 4.188-2.663 1.054-1.714 1.628-4.221 1.721-7.523v-2.15c-.093-3.489-.76-6.075-2.001-7.757-1.24-1.682-2.838-2.476-4.791-2.383-.962.031-1.815.374-2.559 1.028-.745.623-1.365 1.464-1.861 2.523-.496 1.06-.869 2.306-1.117 3.739a24.134 24.134 0 0 0-.325 4.579c.031 1.776.232 3.333.604 4.673.373 1.34.853 2.46 1.443 3.364.62.872 1.333 1.527 2.14 1.963a4.927 4.927 0 0 0 2.558.607ZM150.11 8.527c1.643-.031 3.086.156 4.326.56 1.241.406 2.295.935 3.164 1.59.899.654 1.628 1.401 2.186 2.242a10.25 10.25 0 0 1 1.35 2.477c.31.841.511 1.666.604 2.476.093.78.093 1.449 0 2.01-.093.56-.403.84-.93.84h-16.702c.031.344.062.67.093.982.031.312.078.639.14.982.248 1.557.682 2.928 1.302 4.111.621 1.184 1.365 2.181 2.233 2.991a9.72 9.72 0 0 0 2.978 1.776c1.116.405 2.28.607 3.489.607 1.923 0 3.815-.514 5.676-1.542.465-.249.822-.28 1.07-.093.248.249.217.607-.093 1.074-.31.374-.744.842-1.303 1.402-.527.53-1.209 1.044-2.047 1.542-.806.499-1.768.92-2.884 1.262-1.117.374-2.404.56-3.862.56-1.892 0-3.644-.31-5.257-.934-1.612-.623-3.024-1.495-4.233-2.617a12.933 12.933 0 0 1-2.885-4.112c-.713-1.588-1.147-3.333-1.302-5.233-.155-2.025.046-3.925.604-5.701.559-1.807 1.396-3.38 2.513-4.72a12.723 12.723 0 0 1 4.187-3.27c1.675-.81 3.536-1.231 5.583-1.262Zm2.512 10.28c.62 0 1.116-.031 1.489-.093.372-.063.651-.187.837-.374.217-.187.357-.452.419-.795.062-.342.077-.778.046-1.308a8.069 8.069 0 0 0-.418-2.196 6.9 6.9 0 0 0-.977-2.103 5.512 5.512 0 0 0-1.629-1.542c-.651-.436-1.411-.654-2.279-.654-.869 0-1.675.249-2.42.747-.713.499-1.333 1.169-1.861 2.01-.496.81-.899 1.76-1.209 2.85a17.524 17.524 0 0 0-.512 3.458h8.514Zm40.363 15.327c.248.124.449.233.605.327a.459.459 0 0 1 .232.42c0 .343-.294.514-.884.514-.434 0-.977.016-1.628.047-.651.031-1.334.078-2.047.14l-2.001.094c-.62.031-1.116.078-1.488.14-.559.093-.838-.171-.838-.794V31.47a9.54 9.54 0 0 1-3.21 3.552c-1.334.903-3.039 1.355-5.117 1.355-1.799 0-3.428-.343-4.885-1.028a10.32 10.32 0 0 1-3.629-3.037c-.993-1.309-1.753-2.882-2.28-4.72-.527-1.87-.76-3.972-.698-6.308.062-2.15.45-4.05 1.163-5.701.714-1.682 1.66-3.069 2.838-4.159a10.708 10.708 0 0 1 4.187-2.336c1.613-.499 3.35-.639 5.211-.421 1.613.187 2.931.67 3.954 1.449a9.038 9.038 0 0 1 2.466 2.85V8.34c0-.81-.062-1.449-.186-1.916-.093-.498-.357-.841-.791-1.028a3.806 3.806 0 0 1-.605-.28.623.623 0 0 1-.232-.514c0-.343.263-.608.791-.795.341-.062.775-.155 1.302-.28a38.59 38.59 0 0 0 1.768-.467 22.72 22.72 0 0 0 2.047-.701c.714-.28 1.411-.592 2.094-.935.248-.124.45-.14.605-.047.155.094.232.265.232.514v29.346c0 .84.062 1.495.186 1.962.124.468.404.78.838.935Zm-13.864-.748c1.768-.062 3.163-.95 4.187-2.663 1.054-1.714 1.628-4.221 1.721-7.523v-2.15c-.093-3.489-.76-6.075-2-7.757-1.241-1.682-2.838-2.476-4.792-2.383-.962.031-1.815.374-2.559 1.028-.744.623-1.365 1.464-1.861 2.523-.496 1.06-.868 2.306-1.116 3.739a24.05 24.05 0 0 0-.326 4.579c.031 1.776.233 3.333.605 4.673.372 1.34.853 2.46 1.442 3.364.62.872 1.334 1.527 2.14 1.963a4.929 4.929 0 0 0 2.559.607Zm22.552 2.897a4.336 4.336 0 0 1-1.674-.327 4.634 4.634 0 0 1-1.396-.888 4.67 4.67 0 0 1-.884-1.401 4.394 4.394 0 0 1-.326-1.683c0-.623.109-1.199.326-1.729.217-.53.512-.98.884-1.355a4.226 4.226 0 0 1 1.396-.934 3.868 3.868 0 0 1 1.674-.374c.59 0 1.148.125 1.675.374.527.218.977.53 1.349.934.404.374.714.826.931 1.355.248.53.372 1.106.372 1.73 0 .591-.124 1.152-.372 1.682-.217.53-.527.996-.931 1.401-.372.374-.822.67-1.349.888a4.337 4.337 0 0 1-1.675.327Z" fill="#4ADE80"/></svg>